# xmcd
# Copyright (C) 1995-1998 Ti Kan
#
# Track frame offsets:
#       150
#       20404
#       44784
#       64311
#       83777
#       100445
#       122648
#       161698
#       187000
#       208715
#       229419
#       250115
#       266922
#       287176
#       310280
#
# Disc length: 4404 seconds
#
# Revision: 1
# Processed by: cddbd v1.5.2PL0 Copyright (c) Steve Scherf et al.
# Submitted via: CD-Transfer v1.0
#
DISCID=e811320f
DTITLE=Motown - 
DYEAR=05
DGENRE=
TTITLE0=I Want You Back (Z-Trip Remix)
TTITLE1=I Heard It Through The Grapevine (Sympathy For The Grapes Mix)
TTITLE2=Let's Get It On (Da Producers Groove Mix)
TTITLE3=Signed, Sealed Delivered, I'm Yours 8dj Smash Essential Funk Mix)
TTITLE4=Abc (Saleem Remi Krunk-A-Delic Party Mix)
TTITLE5=I Just Want To Celebrate (Mocean Worker Remix)
TTITLE6=Papa Was A Rolling Stone (Dj Jezzy Jeff and Pete Kuzma Soulful Mix)
TTITLE7=Quiet Storm (Groove Boutique Remix)
TTITLE8=My World Is Empty Without You (Tranzition Remix)
TTITLE9=Just My Imagination (Easy Mo Bee Remix)
TTITLE10=Smiling Faces Sometimes (Futurshock Main Ingridient Mix)
TTITLE11=Tears Of A Clown, The ( Hotshax Remix)
TTITLE12=Kep On Truckin' (Dj Spina Remix)
TTITLE13=War (King Brit Remix)
TTITLE14=Mary Jane (Dj Green Lantern Evil Genius Remix)
EXTD=
EXTT0=
EXTT1=
EXTT2=
EXTT3=
EXTT4=
EXTT5=
EXTT6=
EXTT7=
EXTT8=
EXTT9=
EXTT10=
EXTT11=
EXTT12=
EXTT13=
EXTT14=
PLAYORDER=
